<?xml version="1.0" encoding="UTF-8"?>
<!DOCTYPE svg PUBLIC "-//W3C//DTD SVG 1.1//EN" "http://www.w3.org/Graphics/SVG/1.1/DTD/svg11.dtd">
<!-- Creator: CorelDRAW -->
<svg xmlns="http://www.w3.org/2000/svg" xml:space="preserve" width="695px" height="708px" style="shape-rendering:geometricPrecision; text-rendering:geometricPrecision; image-rendering:optimizeQuality; fill-rule:evenodd; clip-rule:evenodd"
viewBox="0 0 695 708.002"
 xmlns:xlink="http://www.w3.org/1999/xlink">
 <defs>
  <style type="text/css">
   <![CDATA[
    .fil1 {fill:#333333}
    .fil0 {fill:#5F9459}
   ]]>
  </style>
 </defs>
 <g id="Camada_x0020_1">
  <metadata id="CorelCorpID_0Corel-Layer"/>
  <g id="_328130832">
   <path id="_328132776" class="fil0" d="M593.266 149.587l-266.561 266.561c-7.09726,-10.6004 -118.52,-119.461 -139.643,-138.146l-186.818 187.564c2.13662,8.00553 27.1229,28.0194 34.4434,34.4434 5.67875,-3.80316 33.1217,-31.454 38.4934,-37.8804 19.3949,-23.2016 91.6467,-92.7026 114.623,-115.237l139.276 138.515 300.63 -301.378c2.46142,1.64882 51.6037,50.6245 67.3891,64.3938l0 -166.225 -166.226 0c2.4189,9.05908 56.7533,55.9785 64.3938,67.3879z"/>
   <path id="_328132896" class="fil1" d="M599.256 231.951c0,151.751 0,303.5 0,455.25 1.23189,8.63388 5.74135,16.3288 20.9646,20.9658 17.9705,0 35.941,0 53.9115,0 11.478,-1.37599 19.4717,-7.10789 20.9658,-20.9658l0 -419.309c0,-4.62521 -11.9374,-14.1839 -15.3496,-17.5961l-50.5418 -49.793c-5.89017,3.94371 -10.1398,9.39097 -15.3496,14.6008 -3.33072,3.33072 -14.6008,12.2705 -14.6008,16.8473z"/>
   <path id="_328133448" class="fil1" d="M479.453 351.754c0,111.815 0,223.632 0,335.447 0.562206,13.4162 8.42246,19.5319 20.9658,20.9658l53.9104 0c7.18702,0 14.1237,-6.33899 17.4071,-11.0469 5.13663,-7.36537 3.56576,-14.9634 3.55867,-26.3918l0 -416.314c-6.0697,4.06418 -62.0824,61.3336 -72.2553,71.5076 -4.30867,4.30749 -23.5867,20.6894 -23.5867,25.8319z"/>
   <path id="_328133040" class="fil1" d="M308.735 25.2922c-9.97089,0 -22.8756,3.3319 -30.169,5.77206 -41.9434,16.6571 -60.1218,65.484 -33.1926,102.515 7.56262,10.3984 19.9607,18.287 31.4127,23.9953 7.1575,3.56812 11.2134,5.64923 18.6414,8.3138 48.0497,8.08348 85.6313,48.2788 17.7993,46.5958 -26.4556,-7.98781 -52.9123,-15.9744 -79.3691,-23.9611 0,19.9666 0,39.9343 0,59.9009 24.9591,5.99056 49.9182,11.9811 74.8773,17.9705 0,10.9819 0,21.9638 0,32.9457 12.4784,0 24.9579,0 37.4375,0 0,-11.4803 0,-22.9619 0,-34.4434 34.3961,-2.86182 70.0927,-23.7367 73.4411,-62.8537 1.27087,-14.8441 0.765356,-25.5839 -5.28663,-38.2465 -9.69097,-20.2784 -30.3001,-31.0288 -51.2611,-40.0879 -97.2191,-35.0517 -67.5982,-64.6277 11.5618,-38.5158 7.48702,2.49567 14.974,4.99253 22.4611,7.48821 6.48899,-16.9725 12.9792,-33.9438 19.4682,-50.9163 -13.5426,-3.38505 -59.9186,-16.4729 -70.3844,-16.4729 0,-6.9886 0,-13.976 0,-20.9646 -1.49764,-1.49764 -2.9941,-2.99528 -4.49174,-4.49292 -10.9819,0 -21.965,0 -32.9457,0 0,8.48624 0,16.9713 0,25.4575z"/>
   <path id="_328133160" class="fil1" d="M120.045 432.621c0,84.86 0,169.72 0,254.58 0.936616,12.5362 8.04805,19.4126 20.9658,20.9658 17.9705,0 35.941,0 53.9115,0 10.7575,-2.74725 18.1937,-9.23152 20.9646,-20.9658l0 -295.013 -26.9552 -29.9516c-8.29844,5.5571 -26.3646,25.6158 -34.8178,34.069 -4.95828,4.95828 -34.069,31.8768 -34.069,36.3154z"/>
   <path id="_328133304" class="fil1" d="M359.65 470.06c0,72.3805 0,144.761 0,217.141 0.982679,10.4244 6.85041,18.1182 20.9658,20.9658 17.9705,0 35.941,0 53.9115,0 28.0867,0 20.9646,-45.5635 20.9646,-67.3891l0 -266.56c-9.67916,6.4819 -59.5525,61.2415 -72.5128,71.249 -4.64765,3.5882 -23.3292,19.4067 -23.3292,24.593z"/>
   <path id="_328132800" class="fil1" d="M260.814 708.167l53.9104 0c7.18702,0 14.1237,-6.33899 17.4071,-11.0469 5.13663,-7.36537 3.56576,-14.9634 3.55867,-26.3918l-0.279922 -178.498 -9.06971 8.1449 -86.4923 -85.7246c0,13.3512 -0.800789,267.002 0.122835,273.925 1.1374,8.5264 11.1933,19.591 20.843,19.591z"/>
   <path id="_328133640" class="fil1" d="M34.3158 516.113l-34.0725 -32.5761 0 184.196c-0.00354332,22.2012 -4.7067,38.015 20.9646,40.4339l53.9115 0c7.95356,0 16.2992,-8.10002 19.1008,-13.8437 3.96143,-8.1201 1.8815,-88.799 1.86496,-101.466l-0.370867 -138.143 -61.3986 61.3997z"/>
  </g>
 </g>
</svg>
